<svg width="18" height="18" viewBox="0 0 18 18" fill="none" xmlns="http://www.w3.org/2000/svg">
<path d="M9 0C4.0374 0 0 4.0374 0 9C0 13.9626 4.0374 18 9 18C13.9626 18 18 13.9626 18 9C18 4.0374 13.9626 0 9 0ZM9.675 13.275C9.675 13.6476 9.3726 13.95 9 13.95C8.6274 13.95 8.325 13.6476 8.325 13.275V8.325C8.325 7.9524 8.6274 7.65 9 7.65C9.3726 7.65 9.675 7.9524 9.675 8.325V13.275ZM9 6.3C8.50275 6.3 8.1 5.89725 8.1 5.4C8.1 4.90275 8.50275 4.5 9 4.5C9.49725 4.5 9.9 4.90275 9.9 5.4C9.9 5.89725 9.49725 6.3 9 6.3Z" fill="#F37020"/>
</svg>
