<svg width="16" height="16" viewBox="0 0 16 16" fill="none" xmlns="http://www.w3.org/2000/svg">
<path d="M13.7436 0C12.7257 0 11.8974 0.828308 11.8974 1.84615C11.8974 2.04109 11.9357 2.2257 11.992 2.40224L8.80769 4.81811C8.51649 4.626 8.16902 4.51282 7.79487 4.51282C7.32556 4.51282 6.90143 4.6944 6.57532 4.98397L3.66186 3.3758C3.67794 3.27799 3.69231 3.17921 3.69231 3.07692C3.69231 2.05908 2.864 1.23077 1.84615 1.23077C0.828308 1.23077 0 2.05908 0 3.07692C0 4.09477 0.828308 4.92308 1.84615 4.92308C2.31546 4.92308 2.7396 4.7415 3.06571 4.45192L5.97917 6.0593C5.963 6.15735 5.94872 6.25642 5.94872 6.35897C5.94872 7.37682 6.77703 8.20513 7.79487 8.20513C8.81272 8.20513 9.64103 7.37682 9.64103 6.35897C9.64103 6.16403 9.60275 5.97943 9.54647 5.80288L12.7308 3.38622C13.022 3.57846 13.3693 3.69231 13.7436 3.69231C14.7614 3.69231 15.5897 2.864 15.5897 1.84615C15.5897 0.828308 14.7614 0 13.7436 0ZM13.7436 5.74359C12.7241 5.74359 11.8974 6.57026 11.8974 7.58974V14.1538C11.8974 15.1733 12.7241 16 13.7436 16C14.7631 16 15.5897 15.1733 15.5897 14.1538V7.58974C15.5897 6.57026 14.7631 5.74359 13.7436 5.74359ZM1.84615 6.97436C0.826667 6.97436 0 7.80103 0 8.82051V14.1538C0 15.1733 0.826667 16 1.84615 16C2.86564 16 3.69231 15.1733 3.69231 14.1538V8.82051C3.69231 7.80103 2.86564 6.97436 1.84615 6.97436ZM7.79487 10.2564C6.77538 10.2564 5.94872 11.0831 5.94872 12.1026V14.1538C5.94872 15.1733 6.77538 16 7.79487 16C8.81436 16 9.64103 15.1733 9.64103 14.1538V12.1026C9.64103 11.0831 8.81436 10.2564 7.79487 10.2564Z" fill="white"/>
</svg>
