<svg width="28" height="28" viewBox="0 0 28 28" fill="none" xmlns="http://www.w3.org/2000/svg">
<path opacity="0.3" d="M22.1667 0H5.83333C2.61644 0 0 2.61644 0 5.83333V22.1667C0 25.3836 2.61644 28 5.83333 28H22.1667C25.3836 28 28 25.3836 28 22.1667V5.83333C28 2.61644 25.3836 0 22.1667 0ZM11.2778 23.3333H7.77778C6.062 23.3333 4.66667 21.938 4.66667 20.2222V16.7222C4.66667 16.0774 5.18933 15.5556 5.83333 15.5556C6.47733 15.5556 7 16.0774 7 16.7222V20.2222C7 20.6508 7.34844 21 7.77778 21H11.2778C11.9218 21 12.4444 21.5219 12.4444 22.1667C12.4444 22.8114 11.9218 23.3333 11.2778 23.3333ZM11.2778 7H7.77778C7.34844 7 7 7.34922 7 7.77778V11.2778C7 11.9226 6.47733 12.4444 5.83333 12.4444C5.18933 12.4444 4.66667 11.9226 4.66667 11.2778V7.77778C4.66667 6.062 6.062 4.66667 7.77778 4.66667H11.2778C11.9218 4.66667 12.4444 5.18856 12.4444 5.83333C12.4444 6.47811 11.9218 7 11.2778 7ZM23.3333 20.2222C23.3333 21.938 21.938 23.3333 20.2222 23.3333H16.7222C16.0782 23.3333 15.5556 22.8114 15.5556 22.1667C15.5556 21.5219 16.0782 21 16.7222 21H20.2222C20.6516 21 21 20.6508 21 20.2222V16.7222C21 16.0774 21.5227 15.5556 22.1667 15.5556C22.8107 15.5556 23.3333 16.0774 23.3333 16.7222V20.2222ZM23.3333 11.2778C23.3333 11.9226 22.8107 12.4444 22.1667 12.4444C21.5227 12.4444 21 11.9226 21 11.2778V7.77778C21 7.34922 20.6516 7 20.2222 7H16.7222C16.0782 7 15.5556 6.47811 15.5556 5.83333C15.5556 5.18856 16.0782 4.66667 16.7222 4.66667H20.2222C21.938 4.66667 23.3333 6.062 23.3333 7.77778V11.2778Z" fill="#6C6C6C"/>
</svg>
