<svg width="9" height="11" viewBox="0 0 9 11" fill="none" xmlns="http://www.w3.org/2000/svg">
<path d="M4.4 0C3.67065 0 2.97118 0.289731 2.45546 0.805456C1.93973 1.32118 1.65 2.02065 1.65 2.75C1.65 3.47935 1.93973 4.17882 2.45546 4.69454C2.97118 5.21027 3.67065 5.5 4.4 5.5C5.12934 5.5 5.82882 5.21027 6.34454 4.69454C6.86027 4.17882 7.15 3.47935 7.15 2.75C7.15 2.02065 6.86027 1.32118 6.34454 0.805456C5.82882 0.289731 5.12934 0 4.4 0ZM7.70577 6.6H1.09422C0.490875 6.6 0 7.09088 0 7.69423V8.1125C0 9.0233 0.518375 9.8109 1.45942 10.3298C2.24235 10.7621 3.2868 11 4.4 11C6.51915 11 8.8 10.0964 8.8 8.1125V7.69423C8.8 7.09088 8.30912 6.6 7.70577 6.6Z" fill="#F37020"/>
</svg>
