<svg width="13" height="16" viewBox="0 0 13 16" fill="none" xmlns="http://www.w3.org/2000/svg">
<path d="M6.09524 0C5.95962 0 5.82396 0.0479643 5.71577 0.144345L4.35045 1.35789L3.20015 0.495536C3.0272 0.366012 2.79471 0.344458 2.60119 0.44122C2.40767 0.537982 2.28571 0.736 2.28571 0.952381V3.42857H2.85714H3.42857H8.7619H9.33333H9.90476V0.952381C9.90476 0.736 9.78281 0.537982 9.58929 0.44122C9.39576 0.343696 9.16328 0.365631 8.99033 0.495536L7.84003 1.35789L6.4747 0.144345C6.36651 0.0479643 6.23086 0 6.09524 0ZM2.30506 4.19048C2.29363 4.31619 2.28571 4.44571 2.28571 4.57143C2.28571 6.67048 3.99619 8.38095 6.09524 8.38095C8.19429 8.38095 9.90476 6.67048 9.90476 4.57143C9.90476 4.44571 9.89685 4.31619 9.88542 4.19048H2.30506ZM1.71429 9.90476C0.774285 9.90476 0 10.679 0 11.619V12.0759C0 13.1962 0.710367 14.2011 1.7939 14.8921C2.87743 15.5831 4.35994 16 6.09524 16C7.83054 16 9.31305 15.5831 10.3966 14.8921C11.4801 14.2011 12.1905 13.1962 12.1905 12.0759V11.619C12.1905 10.679 11.4162 9.90476 10.4762 9.90476H1.71429Z" fill="#BDBCBC"/>
</svg>
