<svg width="28" height="28" viewBox="0 0 28 28" fill="none" xmlns="http://www.w3.org/2000/svg">
<path opacity="0.3" d="M9.79786 0.000289403C6.22432 0.0315449 3.32573 2.94026 3.32573 6.51185C3.32573 10.0834 6.22432 12.9922 9.79786 13.0234H9.81948H9.85637H9.87799C13.4515 12.9922 16.3489 10.0834 16.3489 6.51185C16.3489 2.94026 13.4515 0.0315449 9.87799 0.000289403C9.86431 0.000289403 9.85096 0.000940559 9.83729 0.000289403C9.82362 0.000289403 9.81089 -0.000361753 9.79786 0.000289403ZM20.837 13.6746C16.8812 13.6746 13.6743 16.8815 13.6743 20.8373C13.6743 24.7931 16.8812 28 20.837 28C24.7928 28 27.9997 24.7931 27.9997 20.8373C27.9997 16.8815 24.7928 13.6746 20.837 13.6746ZM2.42403 15.628C1.08786 15.628 0 16.79 0 18.2187V19.2094C0 21.3458 1.10396 23.2025 3.10952 24.4364C4.79667 25.475 7.04551 26.0465 9.44176 26.0465C10.9583 26.0465 12.4027 25.8017 13.6946 25.3687C12.8611 24.0579 12.372 22.5062 12.372 20.8373C12.372 18.8708 13.0489 17.0651 14.1741 15.628H2.42403ZM20.1858 16.2792C20.5453 16.2792 20.837 16.5709 20.837 16.9303V20.8373H24.0928C24.4522 20.8373 24.7439 21.129 24.7439 21.4884C24.7439 21.8479 24.4522 22.1396 24.0928 22.1396H20.1858C19.8264 22.1396 19.5347 21.8479 19.5347 21.4884V16.9303C19.5347 16.5709 19.8264 16.2792 20.1858 16.2792Z" fill="#9B9B9B"/>
</svg>
